<svg width="14" height="12" viewBox="0 0 14 12" fill="none" xmlns="http://www.w3.org/2000/svg">
<path d="M1.66732 11.3346C1.30065 11.3346 0.986873 11.2042 0.725984 10.9433C0.464651 10.682 0.333984 10.368 0.333984 10.0013V2.0013C0.333984 1.63464 0.464651 1.32086 0.725984 1.05997C0.986873 0.798635 1.30065 0.667969 1.66732 0.667969H12.334C12.7007 0.667969 13.0147 0.798635 13.276 1.05997C13.5369 1.32086 13.6673 1.63464 13.6673 2.0013V10.0013C13.6673 10.368 13.5369 10.682 13.276 10.9433C13.0147 11.2042 12.7007 11.3346 12.334 11.3346H1.66732ZM7.00065 6.66797L1.66732 3.33464V10.0013H12.334V3.33464L7.00065 6.66797ZM7.00065 5.33464L12.334 2.0013H1.66732L7.00065 5.33464ZM1.66732 3.33464V2.0013V10.0013V3.33464Z" fill="#3C3C3C"/>
</svg>
